#!OML:ASF X:\für Bonn\!DataBase\2005_08_10_Bjorn_Final\c3d\bjorn.ASF
:FULLY-SPECIFIED
:DEGREES
592
root -0.358933 1.60988 10.6395 -2439.43 1.59082 184.916
lowerback 8.06301 1.03202 0.160158
upperback 5.49889 0.993765 -2.11885
thorax 1.20896 0.349631 -2.34699
lowerneck -17.8808 -4.5407 -1.20104
upperneck 10.3193 -6.67097 4.67888
head 6.24734 -2.98078 0.980147
rclavicle -2.06736e-014 2.83268e-014
rhumerus -432.234 52.4688 249.163
rradius 110.995
rwrist -30.0484
rhand 0.846718 8.7449
rfingers 7.12502
rthumb 26.4011 -19.4368
lclavicle -2.06736e-014 2.83268e-014
lhumerus -77.2061 -68.2003 119.323
lradius 110.786
lwrist 36.0905
lhand -4.93979 -12.9869
lfingers 7.12502
lthumb 20.8513 735.913
rfemur -217.434 -168.039 182.125
rtibia 107.143
rfoot 32.4202 11.088
rtoes -7.02032
lfemur 195.15 179.305 164.892
ltibia 3.4191e-014
lfoot 22.0082 -5.0238
ltoes -17.6451
593
root -0.354781 1.61349 10.6422 -2439.48 1.64633 184.759
lowerback 8.06973 1.08306 0.209311
upperback 5.5308 1.06094 -2.1032
thorax 1.2421 0.382516 -2.36303
lowerneck -17.8838 -4.53617 -1.17441
upperneck 10.2724 -6.65969 4.62754
head 6.22947 -2.97881 0.96139
rclavicle 4.92986e-014 -2.3556e-014
rhumerus -431.999 52.4495 249.394
rradius 110.989
rwrist -30.0049
rhand 1.13744 8.80066
rfingers 7.12502
rthumb 26.6794 -19.339
lclavicle 4.92986e-014 -2.3556e-014
lhumerus -77.2057 -68.2264 119.314
lradius 110.797
lwrist 35.961
lhand -5.01051 -12.9686
lfingers 7.12502
lthumb 20.7833 735.938
rfemur -217.488 -168.554 182.524
rtibia 107.109
rfoot 32.0245 11.0686
rtoes -7.1676
lfemur 195.275 179.228 165.034
ltibia -6.36111e-015
lfoot 21.7865 -4.56985
ltoes -17.5661
594
root -0.349651 1.61721 10.6442 -2439.53 1.66705 184.613
lowerback 8.08412 1.12495 0.181472
upperback 5.54494 1.11281 -2.06938
thorax 1.24967 0.406154 -2.31605
lowerneck -17.8524 -4.52743 -1.22284
upperneck 10.228 -6.62984 4.61629
head 6.21028 -2.96748 0.969948
rclavicle -3.18055e-015 1.41137e-014
rhumerus -431.839 52.4588 249.609
rradius 110.991
rwrist -29.9686
rhand 1.43746 8.86279
rfingers 7.12502
rthumb 26.9665 -19.2328
lclavicle -3.18055e-015 1.41137e-014
lhumerus -77.1915 -68.1657 119.323
lradius 110.798
lwrist 35.8511
lhand -5.10449 -12.9852
lfingers 7.12502
lthumb 20.693 735.932
rfemur -217.544 -169.031 182.881
rtibia 107.059
rfoot 31.5991 11.0544
rtoes -7.44208
lfemur 195.39 179.155 165.133
ltibia -7.15625e-015
lfoot 21.5744 -4.14432
ltoes -17.5727
595
root -0.345812 1.6209 10.6454 -2439.58 1.68763 184.482
lowerback 8.08088 1.17198 0.19704
upperback 5.57896 1.17244 -2.06493
thorax 1.28966 0.434462 -2.32405
lowerneck -17.8695 -4.52056 -1.18797
upperneck 10.198 -6.61688 4.55669
head 6.19958 -2.96438 0.946993
rclavicle -1.59028e-015 -1.78906e-014
rhumerus -431.615 52.428 249.841
rradius 110.978
rwrist -29.917
rhand 1.70908 8.94015
rfingers 7.12502
rthumb 27.2263 -19.115
lclavicle -1.59028e-015 -1.78906e-014
lhumerus -77.1489 -68.1869 119.287
lradius 110.796
lwrist 35.7463
lhand -5.14649 -12.9756
lfingers 7.12502
lthumb 20.6527 735.946
rfemur -217.581 -169.475 183.216
rtibia 106.983
rfoot 31.1663 11.008
rtoes -7.51896
lfemur 195.505 179.094 165.218
ltibia 5.08889e-014
lfoot 21.3659 -3.75225
ltoes -17.6323
596
root -0.341226 1.62464 10.6471 -2439.63 1.71411 184.363
lowerback 8.10437 1.20739 0.188161
upperback 5.57936 1.21778 -2.0355
thorax 1.27811 0.455858 -2.29206
lowerneck -17.7868 -4.51425 -1.21395
upperneck 10.1273 -6.59084 4.52105
head 6.16203 -2.95729 0.945148
rclavicle -1.59028e-015 1.90833e-014
rhumerus -431.496 52.395 250.02
rradius 110.98
rwrist -29.8736
rhand 2.02776 9.01651
rfingers 7.12502
rthumb 27.5311 -18.9904
lclavicle -1.59028e-015 1.90833e-014
lhumerus -77.2238 -68.1469 119.371
lradius 110.814
lwrist 35.6379
lhand -5.18063 -12.9945
lfingers 7.12502
lthumb 20.6199 735.93
rfemur -217.609 -169.92 183.574
rtibia 106.873
rfoot 30.7142 10.8985
rtoes -7.50196
lfemur 195.609 179.048 165.309
ltibia -2.8625e-014
lfoot 21.1621 -3.35735
ltoes -17.7142
597
root -0.335491 1.62868 10.6487 -2439.67 1.71625 184.262
lowerback 8.09556 1.24176 0.152178
upperback 5.60312 1.25892 -2.01984
thorax 1.30806 0.47403 -2.25813
lowerneck -17.7734 -4.50856 -1.23211
upperneck 10.091 -6.57171 4.49734
head 6.14726 -2.95079 0.943314
rclavicle 1.43125e-014 -3.50855e-014
rhumerus -431.31 52.3853 250.239
rradius 110.99
rwrist -29.8317
rhand 2.31861 9.07152
rfingers 7.12502
rthumb 27.8093 -18.8908
lclavicle 1.43125e-014 -3.50855e-014
lhumerus -77.178 -68.1242 119.358
lradius 110.808
lwrist 35.5232
lhand -5.22113 -12.9748
lfingers 7.12502
lthumb 20.5809 735.954
rfemur -217.639 -170.314 183.899
rtibia 106.741
rfoot 30.2604 10.7726
rtoes -7.28585
lfemur 195.702 179.013 165.371
ltibia 3.02153e-014
lfoot 20.9724 -3.00245
ltoes -17.9052
598
root -0.330096 1.63324 10.6489 -2439.7 1.72273 184.167
lowerback 8.08057 1.27448 0.134195
upperback 5.62801 1.29868 -2.02078
thorax 1.34338 0.492103 -2.25127
lowerneck -17.7749 -4.49842 -1.18837
upperneck 10.051 -6.55741 4.44272
head 6.13074 -2.9469 0.921093
rclavicle 9.54166e-015 -9.83984e-015
rhumerus -431.127 52.3395 250.438
rradius 111.009
rwrist -29.7964
rhand 2.62369 9.12126
rfingers 7.12502
rthumb 28.1009 -18.7936
lclavicle 9.54166e-015 -9.83984e-015
lhumerus -77.1639 -68.1254 119.341
lradius 110.806
lwrist 35.4262
lhand -5.25453 -12.9616
lfingers 7.12502
lthumb 20.5488 735.971
rfemur -217.65 -170.639 184.199
rtibia 106.57
rfoot 29.8507 10.5993
rtoes -6.75418
lfemur 195.788 178.984 165.433
ltibia -3.10104e-014
lfoot 20.7723 -2.6128
ltoes -17.8857
599
root -0.324247 1.63719 10.6493 -2439.76 1.73338 184.097
lowerback 8.10362 1.2981 0.0948926
upperback 5.64063 1.3258 -1.99405
thorax 1.34314 0.503264 -2.20371
lowerneck -17.7154 -4.48688 -1.19049
upperneck 9.98483 -6.52885 4.39516
head 6.09724 -2.93813 0.911452
rclavicle 1.27222e-014 -5.06901e-015
rhumerus -431.018 52.3197 250.607
rradius 111.02
rwrist -29.7619
rhand 2.89761 9.1862
rfingers 7.12502
rthumb 28.3627 -18.6854
lclavicle 1.27222e-014 -5.06901e-015
lhumerus -77.1634 -68.0887 119.361
lradius 110.813
lwrist 35.3342
lhand -5.2373 -12.9512
lfingers 7.12502
lthumb 20.5654 735.979
rfemur -217.642 -170.905 184.502
rtibia 106.356
rfoot 29.4582 10.4007
rtoes -6.30112
lfemur 195.886 178.983 165.494
ltibia 2.94201e-014
lfoot 20.6018 -2.24248
ltoes -18.0317
600
root -0.318631 1.63995 10.6505 -2439.81 1.72646 184.064
lowerback 8.11795 1.31082 0.0477577
upperback 5.67604 1.33637 -1.98333
thorax 1.37094 0.505397 -2.16695
lowerneck -17.7254 -4.48506 -1.17055
upperneck 9.95605 -6.51797 4.32995
head 6.08615 -2.93691 0.889033
rclavicle 1.11319e-014 -5.86415e-015
rhumerus -430.839 52.3155 250.821
rradius 111.037
rwrist -29.7666
rhand 3.18379 9.25327
rfingers 7.12502
rthumb 28.6362 -18.5725
lclavicle 1.11319e-014 -5.86415e-015
lhumerus -77.0829 -68.0886 119.314
lradius 110.794
lwrist 35.2836
lhand -5.27225 -12.9727
lfingers 7.12502
lthumb 20.5318 735.962
rfemur -217.636 -171.157 184.794
rtibia 106.09
rfoot 29.116 10.1618
rtoes -5.84513
lfemur 195.973 179.013 165.525
ltibia 0
lfoot 20.4262 -1.87664
ltoes -18.1385
601
root -0.314474 1.64421 10.6522 -2439.85 1.73241 184.02
lowerback 8.11749 1.32964 0.038388
upperback 5.69229 1.35889 -1.98481
thorax 1.38876 0.515454 -2.16463
lowerneck -17.7071 -4.4793 -1.15039
upperneck 9.91663 -6.50759 4.29695
head 6.06835 -2.93445 0.877353
rclavicle -3.49861e-014 3.17062e-014
rhumerus -430.719 52.2569 250.963
rradius 111.05
rwrist -29.7237
rhand 3.44856 9.29771
rfingers 7.12502
rthumb 28.8891 -18.4851
lclavicle -3.49861e-014 3.17062e-014
lhumerus -77.0835 -68.0859 119.326
lradius 110.779
lwrist 35.2312
lhand -5.25976 -12.9912
lfingers 7.12502
lthumb 20.5438 735.942
rfemur -217.652 -171.4 185.103
rtibia 105.772
rfoot 28.7921 9.94028
rtoes -5.57866
lfemur 196.048 179.032 165.567
ltibia 2.14687e-014
lfoot 20.252 -1.50725
ltoes -18.2342
602
root -0.310707 1.6473 10.6534 -2439.89 1.73568 183.985
lowerback 8.13866 1.34379 0.00993803
upperback 5.69975 1.37482 -1.96179
thorax 1.38406 0.521731 -2.12627
lowerneck -17.6529 -4.47719 -1.15975
upperneck 9.86514 -6.49012 4.24548
head 6.04083 -2.93122 0.866174
rclavicle 4.77083e-015 7.65321e-015
rhumerus -430.632 52.2271 251.124
rradius 111.063
rwrist -29.7122
rhand 3.70526 9.37421
rfingers 7.12502
rthumb 29.1343 -18.3664
lclavicle 4.77083e-015 7.65321e-015
lhumerus -77.105 -68.0423 119.403
lradius 110.764
lwrist 35.1619
lhand -5.25621 -12.9761
lfingers 7.12502
lthumb 20.5472 735.956
rfemur -217.656 -171.587 185.388
rtibia 105.398
rfoot 28.5537 9.62663
rtoes -5.16861
lfemur 196.132 179.06 165.599
ltibia 3.89618e-014
lfoot 20.0903 -1.16807
ltoes -18.4242
603
root -0.308566 1.65031 10.6552 -2439.91 1.74631 183.95
lowerback 8.11217 1.35145 0.0197027
upperback 5.72982 1.38416 -1.95904
thorax 1.43047 0.525765 -2.12885
lowerneck -17.6524 -4.46916 -1.14124
upperneck 9.80813 -6.47261 4.19747
head 6.0196 -2.92631 0.850653
rclavicle -2.62396e-014 3.20043e-014
rhumerus -430.495 52.2158 251.287
rradius 111.095
rwrist -29.719
rhand 3.93934 9.40636
rfingers 7.12502
rthumb 29.3578 -18.2953
lclavicle -2.62396e-014 3.20043e-014
lhumerus -76.9764 -68.0529 119.294
lradius 110.78
lwrist 35.164
lhand -5.22571 -12.9206
lfingers 7.12502
lthumb 20.5765 736.009
rfemur -217.688 -171.688 185.67
rtibia 104.963
rfoot 28.3863 9.42759
rtoes -5.04482
lfemur 196.186 179.085 165.634
ltibia 7.95139e-016
lfoot 19.9209 -0.857407
ltoes -18.5539
604
root -0.306824 1.65257 10.6553 -2439.94 1.72623 183.951
lowerback 8.12873 1.35456 0.0192159
upperback 5.73515 1.38628 -1.98835
thorax 1.42783 0.5264 -2.15936
lowerneck -17.5976 -4.46277 -1.08542
upperneck 9.76121 -6.47109 4.16535
head 5.9927 -2.92794 0.833449
rclavicle 2.62396e-014 -4.67144e-015
rhumerus -430.405 52.1381 251.379
rradius 111.109
rwrist -29.7236
rhand 4.19092 9.45037
rfingers 7.12502
rthumb 29.598 -18.209
lclavicle 2.62396e-014 -4.67144e-015
lhumerus -77.0525 -68.0564 119.355
lradius 110.791
lwrist 35.1279
lhand -5.2372 -12.8715
lfingers 7.12502
lthumb 20.5655 736.059
rfemur -217.669 -171.739 185.892
rtibia 104.465
rfoot 28.2789 9.15164
rtoes -4.82464
lfemur 196.244 179.139 165.621
ltibia -7.95139e-016
lfoot 19.7868 -0.571926
ltoes -18.7075
605
root -0.305744 1.65462 10.6551 -2439.96 1.73585 183.94
lowerback 8.1173 1.3516 0.0331407
upperback 5.75433 1.38241 -1.98604
thorax 1.45425 0.52436 -2.16422
lowerneck -17.5832 -4.45861 -1.08147
upperneck 9.70868 -6.45822 4.133
head 5.97184 -2.92482 0.824905
rclavicle -3.18055e-015 -1.39149e-015
rhumerus -430.316 52.117 251.508
rradius 111.16
rwrist -29.7049
rhand 4.4463 9.44803
rfingers 7.12502
rthumb 29.8417 -18.1678
lclavicle -3.18055e-015 -1.39149e-015
lhumerus -76.9363 -68.0443 119.296
lradius 110.771
lwrist 35.1282
lhand -5.21182 -12.7994
lfingers 7.12502
lthumb 20.5899 736.129
rfemur -217.659 -171.812 186.161
rtibia 103.906
rfoot 28.2257 8.8097
rtoes -4.4546
lfemur 196.29 179.186 165.642
ltibia 7.95139e-016
lfoot 19.6717 -0.30119
ltoes -18.7883
606
root -0.305169 1.65678 10.6545 -2439.98 1.72964 183.939
lowerback 8.11269 1.35159 0.0589896
upperback 5.76622 1.38247 -2.01477
thorax 1.47074 0.524861 -2.20832
lowerneck -17.5478 -4.44899 -1.02266
upperneck 9.64081 -6.4521 4.10027
head 5.94119 -2.92427 0.807395
rclavicle -1.59028e-015 -1.53064e-014
rhumerus -430.233 52.0585 251.591
rradius 111.186
rwrist -29.6685
rhand 4.62414 9.452
rfingers 7.12502
rthumb 30.0114 -18.1332
lclavicle -1.59028e-015 -1.53064e-014
lhumerus -76.9336 -68.0682 119.279
lradius 110.779
lwrist 35.1611
lhand -5.19647 -12.7493
lfingers 7.12502
lthumb 20.6046 736.177
rfemur -217.618 -171.849 186.41
rtibia 103.276
rfoot 28.1752 8.55186
rtoes -4.07076
lfemur 196.332 179.239 165.637
ltibia 5.24792e-014
lfoot 19.5364 -0.0952957
ltoes -18.8741
